<?xml version="1.0" standalone="no"?>
<svg viewBox="0 0 200 200" xmlns="http://www.w3.org/2000/svg">
  <path fill="#8A3FFC" d="M39.7,-69.8C47.8,-64,48.5,-46.1,49.4,-32.5C50.4,-18.9,51.8,-9.4,50.5,-0.7C49.2,8,45.3,15.9,40.4,22.8C35.5,29.6,29.6,35.3,22.7,47.2C15.8,59.1,7.9,77.3,-1.4,79.8C-10.7,82.2,-21.4,68.8,-34.9,60.7C-48.4,52.6,-64.8,49.8,-71.1,40.5C-77.3,31.3,-73.5,15.6,-69.1,2.5C-64.7,-10.6,-59.9,-21.2,-55,-32.9C-50.2,-44.5,-45.3,-57.3,-36.1,-62.6C-27,-67.8,-13.5,-65.6,1.1,-67.6C15.7,-69.5,31.5,-75.6,39.7,-69.8Z" transform="translate(100 100)" />
</svg>
